<?xml version="1.0" encoding="UTF-8"?>
<!DOCTYPE svg PUBLIC "-//W3C//DTD SVG 1.1//EN" "http://www.w3.org/Graphics/SVG/1.1/DTD/svg11.dtd">
<!-- Creator: CorelDRAW X7 -->
<svg xmlns="http://www.w3.org/2000/svg" xml:space="preserve" width="428.1mm" height="212.55mm" version="1.1" style="shape-rendering:geometricPrecision; text-rendering:geometricPrecision; image-rendering:optimizeQuality; fill-rule:evenodd; clip-rule:evenodd"
viewBox="0 0 42810 21255"
 xmlns:xlink="http://www.w3.org/1999/xlink">
 <defs>
  <style type="text/css">
   <![CDATA[
    .fil0 {fill:#001523}
    .fil3 {fill:#FF964B}
    .fil1 {fill:#FEFEFE;fill-rule:nonzero}
    .fil2 {fill:#FF964B;fill-rule:nonzero}
   ]]>
  </style>
 </defs>
 <g id="Слой_x0020_1">
  <metadata id="CorelCorpID_0Corel-Layer"/>
  <g id="_2181613768624">
   <path class="fil0" d="M1479 17l39801 0c804,0 1461,658 1461,1461l0 18299c0,804 -657,1461 -1461,1461l-39801 0c-803,0 -1461,-657 -1461,-1461l0 -18299c0,-803 658,-1461 1461,-1461z"/>
   <path class="fil1" d="M6454 7942l0 1833 -1576 0 0 -5053 2157 0c537,0 946,62 1227,186 279,124 501,312 665,567 164,254 246,539 246,855 0,482 -168,871 -502,1167 -335,297 -782,445 -1341,445l-876 0zm-23 -1083l515 0c455,0 682,-171 682,-512 0,-320 -210,-481 -630,-481l-567 0 0 993zm4570 1354l-1919 -3491 1719 0 887 1942 730 -1942 1369 0 -1488 3683c-132,334 -285,600 -457,798 -171,198 -360,344 -564,436 -205,91 -465,136 -778,136l-781 0 0 -1121 519 0c433,0 688,-146 763,-441zm5640 -362l1417 85c-67,617 -296,1090 -686,1420 -390,329 -870,495 -1439,495 -686,0 -1239,-227 -1659,-681 -422,-453 -633,-1080 -633,-1878 0,-792 200,-1431 599,-1917 399,-486 955,-728 1670,-728 668,0 1182,184 1540,553 358,368 561,858 608,1467l-1447 78c0,-337 -65,-579 -193,-730 -129,-150 -282,-224 -456,-224 -486,0 -730,491 -730,1474 0,551 63,926 189,1123 128,198 306,296 535,296 407,0 636,-277 685,-833zm4790 0l1417 85c-67,617 -296,1090 -686,1420 -390,329 -870,495 -1439,495 -686,0 -1239,-227 -1659,-681 -422,-453 -633,-1080 -633,-1878 0,-792 200,-1431 599,-1917 399,-486 956,-728 1670,-728 668,0 1182,184 1540,553 358,368 561,858 608,1467l-1447 78c0,-337 -65,-579 -193,-730 -129,-150 -282,-224 -456,-224 -486,0 -730,491 -730,1474 0,551 63,926 189,1123 128,198 306,296 535,296 407,0 636,-277 685,-833zm6541 1924l-1695 0 -871 -1899 -524 733 0 1166 -1462 0 0 -5053 1462 0 0 2085 1388 -2085 1392 0 -1274 1846 1584 3207zm1923 -533l0 533 -1507 0 0 -5053 1507 0 0 2023c0,269 -15,588 -45,961 184,-404 368,-761 550,-1075l798 -1368 0 -541 1507 0 0 5053 -1507 0 0 -2005c0,-289 13,-607 38,-957 -148,340 -331,697 -549,1071l-792 1358zm5197 0l0 533 -1508 0 0 -5053 1508 0 0 2023c0,269 -16,588 -46,961 184,-404 369,-761 551,-1075l797 -1368 0 -541 1508 0 0 5053 -1508 0 0 -2005c0,-289 13,-607 38,-957 -147,340 -330,697 -549,1071l-791 1358zm1348 -6186l651 0c-85,376 -255,664 -506,862 -251,198 -529,297 -834,297 -301,0 -576,-95 -827,-284 -252,-190 -426,-481 -522,-875l652 0c169,348 402,523 700,523 301,0 529,-175 686,-523z"/>
   <path class="fil1" d="M11149 15027l0 1836 -1577 0 0 -5060 2159 0c539,0 948,62 1229,186 279,124 502,312 666,567 165,254 247,540 247,856 0,483 -168,873 -503,1170 -335,297 -783,445 -1343,445l-878 0zm-22 -1085l516 0c455,0 682,-171 682,-512 0,-321 -210,-482 -631,-482l-567 0 0 994zm5508 2997c-711,0 -1292,-237 -1741,-708 -448,-472 -672,-1103 -672,-1893 0,-755 215,-1380 643,-1873 429,-492 1025,-738 1786,-738 704,0 1279,233 1723,697 444,464 665,1083 665,1858 0,803 -224,1447 -671,1931 -448,484 -1024,726 -1733,726zm-6 -1146c263,0 453,-115 568,-344 115,-229 173,-647 173,-1255 0,-882 -238,-1322 -712,-1322 -512,0 -767,502 -767,1508 0,941 246,1413 738,1413zm3062 1070l0 -5060 3733 0 0 1062 -2223 0 0 910 841 0c469,0 834,52 1097,156 263,103 473,273 629,507 155,234 232,517 232,852 0,277 -63,546 -188,808 -127,263 -341,455 -645,579 -305,124 -612,186 -923,186l-2553 0zm1510 -1123l755 0c311,0 466,-157 466,-470 0,-304 -189,-456 -570,-456l-651 0 0 926zm5629 1199c-712,0 -1292,-237 -1741,-708 -449,-472 -673,-1103 -673,-1893 0,-755 215,-1380 644,-1873 428,-492 1024,-738 1785,-738 704,0 1280,233 1723,697 444,464 665,1083 665,1858 0,803 -223,1447 -671,1931 -447,484 -1024,726 -1732,726zm-6 -1146c263,0 452,-115 567,-344 115,-229 174,-647 174,-1255 0,-882 -238,-1322 -712,-1322 -512,0 -768,502 -768,1508 0,941 247,1413 739,1413zm5118 -2776l0 3846 -1472 0 0 -3846 -1047 0 0 -1214 3566 0 0 1214 -1047 0z"/>
   <g>
    <path class="fil2" d="M37626 18504l2 2693 -462 0 -2 -2693 394 -164 68 164zm-68 -164l68 68 0 96 -68 -164zm-929 -928l929 928 -327 327 -928 -929 -68 -163 394 -163zm-326 326l-68 -67 0 -96 68 163zm394 -2289l0 2126 -462 0 0 -2126 462 0z"/>
   </g>
   <g>
    <polygon class="fil2" points="38750,17013 38750,21197 38288,21197 38288,17013 "/>
   </g>
   <g>
    <path class="fil2" d="M39874 18210l0 2987 -462 0 0 -2987 72 -167 390 167zm-462 0l0 -99 72 -68 -72 167zm1318 -712l-928 880 -318 -335 929 -880 389 168 -72 167zm72 -167l0 99 -72 68 72 -167zm0 -2126l0 2126 -461 0 0 -2126 461 0z"/>
   </g>
   <g>
    <polygon class="fil2" points="41043,19925 41039,21198 40577,21196 40582,19923 "/>
   </g>
   <g>
    <polygon class="fil2" points="36465,19503 36470,21196 36008,21199 36003,19506 "/>
   </g>
   <path class="fil3" d="M35624 19080c0,-324 257,-587 573,-587 317,0 573,263 573,587 0,324 -256,587 -573,587 -316,0 -573,-263 -573,-587zm292 0c0,-154 124,-278 278,-278 154,0 278,124 278,278 0,154 -124,278 -278,278 -154,0 -278,-124 -278,-278z"/>
   <path class="fil3" d="M35896 14964c0,-324 257,-587 574,-587 316,0 573,263 573,587 0,324 -257,587 -573,587 -317,0 -574,-263 -574,-587zm292 0c0,-154 125,-278 279,-278 153,0 278,124 278,278 0,153 -125,278 -278,278 -154,0 -279,-125 -279,-278z"/>
   <path class="fil3" d="M37949 16494c0,-324 256,-587 573,-587 316,0 573,263 573,587 0,324 -257,587 -573,587 -317,0 -573,-263 -573,-587zm292 0c0,-154 124,-278 278,-278 154,0 278,124 278,278 0,153 -124,278 -278,278 -154,0 -278,-125 -278,-278z"/>
   <path class="fil3" d="M39990 14704c0,-324 256,-587 573,-587 316,0 573,263 573,587 0,325 -257,588 -573,588 -317,0 -573,-263 -573,-588zm292 0c0,-154 124,-278 278,-278 154,0 278,124 278,278 0,154 -124,278 -278,278 -154,0 -278,-124 -278,-278z"/>
   <path class="fil3" d="M40198 19454c0,-324 256,-587 573,-587 317,0 573,263 573,587 0,325 -256,588 -573,588 -317,0 -573,-263 -573,-588zm292 0c0,-154 124,-278 278,-278 154,0 278,124 278,278 0,154 -124,278 -278,278 -154,0 -278,-124 -278,-278z"/>
  </g>
 </g>
</svg>
